<?xml version="1.0" encoding="utf-8"?>
<!-- Generator: Adobe Illustrator 15.1.0, SVG Export Plug-In . SVG Version: 6.00 Build 0)  -->
<!DOCTYPE svg PUBLIC "-//W3C//DTD SVG 1.1//EN" "http://www.w3.org/Graphics/SVG/1.1/DTD/svg11.dtd">
<svg version="1.1" id="Layer_1" xmlns="http://www.w3.org/2000/svg" xmlns:xlink="http://www.w3.org/1999/xlink" x="0px" y="0px"
	 width="290px" height="47px" viewBox="0 0 290 47" enable-background="new 0 0 290 47" xml:space="preserve">
<polygon fill="#0071BB" points="18.03,0.447 16.659,0.447 16.659,44.468 18.03,44.468 18.03,0.447 "/>
<polygon fill="#EC1164" points="0,13.863 7.88,16.039 7.88,11.687 0,13.863 "/>
<polygon fill="#EC1164" points="5.479,4.072 14.649,6.604 14.649,1.54 5.479,4.072 "/>
<path fill="#0071BB" d="M20.017,9.713h-2.345v23.689h2.345c6.541,0,11.844-2.493,11.844-11.845
	C31.861,12.205,26.558,9.713,20.017,9.713L20.017,9.713z M26.235,24.951l-2.769-2.01l-2.768,2.01l1.058-3.253l-2.768-2.011h3.421
	l1.057-3.255l1.058,3.255h3.42l-2.768,2.011L26.235,24.951L26.235,24.951z"/>
<path fill="#0071BB" d="M43.43,38.173c-1.584,0-2.874-1.288-2.874-2.873V18.671c0-1.584,1.29-2.872,2.874-2.872
	c1.583,0,2.872,1.288,2.872,2.872V35.3C46.302,36.885,45.013,38.173,43.43,38.173L43.43,38.173z M43.43,17.171
	c-0.829,0-1.501,0.673-1.501,1.5V35.3c0,0.83,0.673,1.502,1.501,1.502c0.827,0,1.5-0.672,1.5-1.502V18.671
	C44.93,17.844,44.257,17.171,43.43,17.171L43.43,17.171z"/>
<path fill="#0071BB" d="M43.43,41.56c-3.452,0-6.259-2.808-6.259-6.26V18.671c0-3.451,2.807-6.259,6.259-6.259
	c3.451,0,6.257,2.808,6.257,6.259V35.3C49.688,38.752,46.881,41.56,43.43,41.56L43.43,41.56z M43.43,13.784
	c-2.696,0-4.888,2.193-4.888,4.887V35.3c0,2.696,2.192,4.889,4.888,4.889c2.694,0,4.887-2.192,4.887-4.889V18.671
	C48.317,15.978,46.125,13.784,43.43,13.784L43.43,13.784z"/>
<path fill="#0071BB" d="M43.43,44.947c-5.319,0-9.647-4.329-9.647-9.647V18.671c0-5.319,4.328-9.646,9.647-9.646
	c5.317,0,9.645,4.327,9.645,9.646V35.3C53.075,40.618,48.748,44.947,43.43,44.947L43.43,44.947z M43.43,10.396
	c-4.563,0-8.275,3.712-8.275,8.275V35.3c0,4.564,3.712,8.275,8.275,8.275c4.561,0,8.274-3.711,8.274-8.275V18.671
	C51.704,14.109,47.991,10.396,43.43,10.396L43.43,10.396z"/>
<path fill="#0071BB" d="M43.43,41.56c-3.452,0-6.259-2.808-6.259-6.26V18.671c0-3.451,2.807-6.259,6.259-6.259
	c3.451,0,6.257,2.808,6.257,6.259V35.3C49.688,38.752,46.881,41.56,43.43,41.56L43.43,41.56z M43.43,13.784
	c-2.696,0-4.888,2.193-4.888,4.887V35.3c0,2.696,2.192,4.889,4.888,4.889c2.694,0,4.887-2.192,4.887-4.889V18.671
	C48.317,15.978,46.125,13.784,43.43,13.784L43.43,13.784z"/>
<path fill="#0071BB" d="M43.43,38.173c-1.584,0-2.874-1.288-2.874-2.873V18.671c0-1.584,1.29-2.872,2.874-2.872
	c1.583,0,2.872,1.288,2.872,2.872V35.3C46.302,36.885,45.013,38.173,43.43,38.173L43.43,38.173z M43.43,17.171
	c-0.829,0-1.501,0.673-1.501,1.5V35.3c0,0.83,0.673,1.502,1.501,1.502c0.827,0,1.5-0.672,1.5-1.502V18.671
	C44.93,17.844,44.257,17.171,43.43,17.171L43.43,17.171z"/>
<path fill="#0071BB" d="M43.43,41.56c-3.452,0-6.259-2.808-6.259-6.26V18.671c0-3.451,2.807-6.259,6.259-6.259
	c3.451,0,6.257,2.808,6.257,6.259V35.3C49.688,38.752,46.881,41.56,43.43,41.56L43.43,41.56z M43.43,13.784
	c-2.696,0-4.888,2.193-4.888,4.887V35.3c0,2.696,2.192,4.889,4.888,4.889c2.694,0,4.887-2.192,4.887-4.889V18.671
	C48.317,15.978,46.125,13.784,43.43,13.784L43.43,13.784z"/>
<path fill="#0071BB" d="M43.43,44.947c-5.319,0-9.647-4.329-9.647-9.647V18.671c0-5.319,4.328-9.646,9.647-9.646
	c5.317,0,9.645,4.327,9.645,9.646V35.3C53.075,40.618,48.748,44.947,43.43,44.947L43.43,44.947z M43.43,10.396
	c-4.563,0-8.275,3.712-8.275,8.275V35.3c0,4.564,3.712,8.275,8.275,8.275c4.561,0,8.274-3.711,8.274-8.275V18.671
	C51.704,14.109,47.991,10.396,43.43,10.396L43.43,10.396z"/>
<path fill="#0071BB" d="M43.43,41.56c-3.452,0-6.259-2.808-6.259-6.26V18.671c0-3.451,2.807-6.259,6.259-6.259
	c3.451,0,6.257,2.808,6.257,6.259V35.3C49.688,38.752,46.881,41.56,43.43,41.56L43.43,41.56z M43.43,13.784
	c-2.696,0-4.888,2.193-4.888,4.887V35.3c0,2.696,2.192,4.889,4.888,4.889c2.694,0,4.887-2.192,4.887-4.889V18.671
	C48.317,15.978,46.125,13.784,43.43,13.784L43.43,13.784z"/>
<path fill="#0071BB" d="M43.43,38.173c-1.584,0-2.874-1.288-2.874-2.873V18.671c0-1.584,1.29-2.872,2.874-2.872
	c1.583,0,2.872,1.288,2.872,2.872V35.3C46.302,36.885,45.013,38.173,43.43,38.173L43.43,38.173z M43.43,17.171
	c-0.829,0-1.501,0.673-1.501,1.5V35.3c0,0.83,0.673,1.502,1.501,1.502c0.827,0,1.5-0.672,1.5-1.502V18.671
	C44.93,17.844,44.257,17.171,43.43,17.171L43.43,17.171z"/>
<path fill="#0071BB" d="M43.43,41.56c-3.452,0-6.259-2.808-6.259-6.26V18.671c0-3.451,2.807-6.259,6.259-6.259
	c3.451,0,6.257,2.808,6.257,6.259V35.3C49.688,38.752,46.881,41.56,43.43,41.56L43.43,41.56z M43.43,13.784
	c-2.696,0-4.888,2.193-4.888,4.887V35.3c0,2.696,2.192,4.889,4.888,4.889c2.694,0,4.887-2.192,4.887-4.889V18.671
	C48.317,15.978,46.125,13.784,43.43,13.784L43.43,13.784z"/>
<path fill="#0071BB" d="M43.43,44.947c-5.319,0-9.647-4.329-9.647-9.647V18.671c0-5.319,4.328-9.646,9.647-9.646
	c5.317,0,9.645,4.327,9.645,9.646V35.3C53.075,40.618,48.748,44.947,43.43,44.947L43.43,44.947z M43.43,10.396
	c-4.563,0-8.275,3.712-8.275,8.275V35.3c0,4.564,3.712,8.275,8.275,8.275c4.561,0,8.274-3.711,8.274-8.275V18.671
	C51.704,14.109,47.991,10.396,43.43,10.396L43.43,10.396z"/>
<path fill="#0071BB" d="M43.43,41.56c-3.452,0-6.259-2.808-6.259-6.26V18.671c0-3.451,2.807-6.259,6.259-6.259
	c3.451,0,6.257,2.808,6.257,6.259V35.3C49.688,38.752,46.881,41.56,43.43,41.56L43.43,41.56z M43.43,13.784
	c-2.696,0-4.888,2.193-4.888,4.887V35.3c0,2.696,2.192,4.889,4.888,4.889c2.694,0,4.887-2.192,4.887-4.889V18.671
	C48.317,15.978,46.125,13.784,43.43,13.784L43.43,13.784z"/>
<path fill="#0071BB" d="M43.43,38.173c-1.584,0-2.874-1.288-2.874-2.873V18.671c0-1.584,1.29-2.872,2.874-2.872
	c1.583,0,2.872,1.288,2.872,2.872V35.3C46.302,36.885,45.013,38.173,43.43,38.173L43.43,38.173z M43.43,17.171
	c-0.829,0-1.501,0.673-1.501,1.5V35.3c0,0.83,0.673,1.502,1.501,1.502c0.827,0,1.5-0.672,1.5-1.502V18.671
	C44.93,17.844,44.257,17.171,43.43,17.171L43.43,17.171z"/>
<path fill="#0071BB" d="M43.43,41.56c-3.452,0-6.259-2.808-6.259-6.26V18.671c0-3.451,2.807-6.259,6.259-6.259
	c3.451,0,6.257,2.808,6.257,6.259V35.3C49.688,38.752,46.881,41.56,43.43,41.56L43.43,41.56z M43.43,13.784
	c-2.696,0-4.888,2.193-4.888,4.887V35.3c0,2.696,2.192,4.889,4.888,4.889c2.694,0,4.887-2.192,4.887-4.889V18.671
	C48.317,15.978,46.125,13.784,43.43,13.784L43.43,13.784z"/>
<path fill="#0071BB" d="M43.43,44.947c-5.319,0-9.647-4.329-9.647-9.647V18.671c0-5.319,4.328-9.646,9.647-9.646
	c5.317,0,9.645,4.327,9.645,9.646V35.3C53.075,40.618,48.748,44.947,43.43,44.947L43.43,44.947z M43.43,10.396
	c-4.563,0-8.275,3.712-8.275,8.275V35.3c0,4.564,3.712,8.275,8.275,8.275c4.561,0,8.274-3.711,8.274-8.275V18.671
	C51.704,14.109,47.991,10.396,43.43,10.396L43.43,10.396z"/>
<path fill="#0071BB" d="M43.43,41.56c-3.452,0-6.259-2.808-6.259-6.26V18.671c0-3.451,2.807-6.259,6.259-6.259
	c3.451,0,6.257,2.808,6.257,6.259V35.3C49.688,38.752,46.881,41.56,43.43,41.56L43.43,41.56z M43.43,13.784
	c-2.696,0-4.888,2.193-4.888,4.887V35.3c0,2.696,2.192,4.889,4.888,4.889c2.694,0,4.887-2.192,4.887-4.889V18.671
	C48.317,15.978,46.125,13.784,43.43,13.784L43.43,13.784z"/>
<path fill="#0071BB" d="M43.43,38.173c-1.584,0-2.874-1.288-2.874-2.873V18.671c0-1.584,1.29-2.872,2.874-2.872
	c1.583,0,2.872,1.288,2.872,2.872V35.3C46.302,36.885,45.013,38.173,43.43,38.173L43.43,38.173z M43.43,17.171
	c-0.829,0-1.501,0.673-1.501,1.5V35.3c0,0.83,0.673,1.502,1.501,1.502c0.827,0,1.5-0.672,1.5-1.502V18.671
	C44.93,17.844,44.257,17.171,43.43,17.171L43.43,17.171z"/>
<path fill="#0071BB" d="M43.43,41.56c-3.452,0-6.259-2.808-6.259-6.26V18.671c0-3.451,2.807-6.259,6.259-6.259
	c3.451,0,6.257,2.808,6.257,6.259V35.3C49.688,38.752,46.881,41.56,43.43,41.56L43.43,41.56z M43.43,13.784
	c-2.696,0-4.888,2.193-4.888,4.887V35.3c0,2.696,2.192,4.889,4.888,4.889c2.694,0,4.887-2.192,4.887-4.889V18.671
	C48.317,15.978,46.125,13.784,43.43,13.784L43.43,13.784z"/>
<path fill="#0071BB" d="M43.43,44.947c-5.319,0-9.647-4.329-9.647-9.647V18.671c0-5.319,4.328-9.646,9.647-9.646
	c5.317,0,9.645,4.327,9.645,9.646V35.3C53.075,40.618,48.748,44.947,43.43,44.947L43.43,44.947z M43.43,10.396
	c-4.563,0-8.275,3.712-8.275,8.275V35.3c0,4.564,3.712,8.275,8.275,8.275c4.561,0,8.274-3.711,8.274-8.275V18.671
	C51.704,14.109,47.991,10.396,43.43,10.396L43.43,10.396z"/>
<polygon fill="#0071BB" points="140.794,9.652 139.424,9.652 139.424,44.469 140.794,44.469 140.794,9.652 "/>
<polygon fill="#0071BB" points="137.434,9.713 136.063,9.713 136.063,44.468 137.434,44.468 137.434,9.713 "/>
<polygon fill="#0071BB" points="144.175,9.652 142.803,9.652 142.803,44.469 144.175,44.469 144.175,9.652 "/>
<polygon fill="#0071BB" points="101.9,0.447 100.528,0.447 100.528,44.468 101.9,44.468 101.9,0.447 "/>
<polygon fill="#EC1164" points="89.349,4.072 98.519,6.604 98.519,1.54 89.349,4.072 "/>
<polygon fill="#0071BB" points="130.736,44.456 121.223,44.456 126.504,29.931 136.017,29.931 130.736,44.456 "/>
<path fill="#0071BB" d="M133.733,9.761c-6.542,0-11.845,2.493-11.845,11.845s5.303,11.844,11.845,11.844h2.345V9.761H133.733
	L133.733,9.761z M133.744,25l-2.768-2.011L128.208,25l1.058-3.253l-2.768-2.011h3.421l1.057-3.254l1.058,3.254h3.42l-2.767,2.011
	L133.744,25L133.744,25z"/>
<polygon fill="#0071BB" points="110.202,19.19 110.202,44.486 118.865,44.486 118.865,9.713 113.581,9.713 110.202,19.19 "/>
<polygon fill="#0071BB" points="111.284,9.713 105.144,26.939 105.144,44.486 105.719,44.486 118.113,9.713 111.284,9.713 "/>
<polygon fill="#0071BB" points="98.514,9.713 97.144,9.713 97.144,44.468 98.514,44.468 98.514,9.713 "/>
<polygon fill="#0071BB" points="105.257,9.713 103.886,9.713 103.886,44.468 105.257,44.468 105.257,9.713 "/>
<path fill="#0071BB" d="M73.417,31.174V35.3c0,4.564-3.712,8.275-8.276,8.275c-4.562,0-8.273-3.711-8.273-8.275V18.671
	c0-4.563,3.711-8.274,8.273-8.274c4.563,0,8.276,3.711,8.276,8.274v2.274h1.371v-2.274c0-5.319-4.327-9.646-9.647-9.646
	c-5.318,0-9.645,4.327-9.645,9.646V35.3c0,5.318,4.327,9.647,9.645,9.647c5.32,0,9.647-4.329,9.647-9.647v-4.126H73.417
	L73.417,31.174z"/>
<path fill="#0071BB" d="M68.014,20.946v-2.275c0-1.584-1.288-2.872-2.872-2.872c-1.583,0-2.872,1.288-2.872,2.872V35.3
	c0,1.585,1.289,2.873,2.872,2.873c1.584,0,2.872-1.288,2.872-2.873v-4.126h-1.372V35.3c0,0.829-0.673,1.502-1.5,1.502
	c-0.827,0-1.5-0.673-1.5-1.502V18.671c0-0.828,0.673-1.5,1.5-1.5c0.828,0,1.5,0.673,1.5,1.5v2.275H68.014L68.014,20.946z"/>
<path fill="#0071BB" d="M71.401,20.946v-2.275c0-3.451-2.808-6.259-6.26-6.259c-3.451,0-6.258,2.808-6.258,6.259V35.3
	c0,3.452,2.808,6.26,6.258,6.26c3.452,0,6.26-2.808,6.26-6.26v-4.126h-1.372V35.3c0,2.697-2.193,4.889-4.888,4.889
	c-2.694,0-4.888-2.191-4.888-4.889V18.671c0-2.695,2.193-4.887,4.888-4.887c2.695,0,4.888,2.192,4.888,4.887v2.275H71.401
	L71.401,20.946z"/>
<path fill="#0071BB" d="M64.395,37.315c-0.314-0.17-0.914-0.687-1.143-1.285c-0.228-0.6,0.144-0.113,0-1.971
	c-0.142-1.856-0.285-15.485-0.285-15.485s0.285-1.285,0.856-1.601c0.334-0.182,0.89-0.327,1.296-0.415V9.588l-3.2,0.427
	l-3.352,2.094l-1.943,3.2l-0.591,2.876v11.732c0,0-0.248,4.685,0.095,6.438c0.343,1.752,0.267,2.38,1.39,3.657
	c1.124,1.276,1.791,2.21,3.047,3.047c1.258,0.839,2.419,0.781,2.934,0.895c0.256,0.059,0.967,0.104,1.619,0.139v-6.681
	C64.82,37.409,64.526,37.389,64.395,37.315L64.395,37.315z"/>
<path fill="#0071BB" d="M93.987,31.174V35.3c0,4.564-3.712,8.275-8.275,8.275c-4.562,0-8.273-3.711-8.273-8.275V18.671
	c0-4.563,3.711-8.274,8.273-8.274c4.563,0,8.275,3.711,8.275,8.274v2.274h1.371v-2.274c0-5.319-4.327-9.646-9.646-9.646
	c-5.317,0-9.645,4.327-9.645,9.646V35.3c0,5.318,4.328,9.647,9.645,9.647c5.319,0,9.646-4.329,9.646-9.647v-4.126H93.987
	L93.987,31.174z"/>
<path fill="#0071BB" d="M88.584,20.946v-2.275c0-1.584-1.288-2.872-2.872-2.872s-2.873,1.288-2.873,2.872V35.3
	c0,1.585,1.289,2.873,2.873,2.873s2.872-1.288,2.872-2.873v-4.126h-1.372V35.3c0,0.829-0.672,1.502-1.5,1.502s-1.5-0.673-1.5-1.502
	V18.671c0-0.828,0.673-1.5,1.5-1.5s1.5,0.673,1.5,1.5v2.275H88.584L88.584,20.946z"/>
<path fill="#0071BB" d="M91.971,20.946v-2.275c0-3.451-2.808-6.259-6.258-6.259c-3.451,0-6.259,2.808-6.259,6.259V35.3
	c0,3.452,2.808,6.26,6.259,6.26c3.45,0,6.258-2.808,6.258-6.26v-4.126H90.6V35.3c0,2.697-2.193,4.889-4.887,4.889
	c-2.695,0-4.888-2.191-4.888-4.889V18.671c0-2.695,2.193-4.887,4.888-4.887c2.694,0,4.887,2.192,4.887,4.887v2.275H91.971
	L91.971,20.946z"/>
<path fill="#0071BB" d="M87.662,31.174c-0.031,1.384-0.063,2.454-0.097,2.886c-0.142,1.857,0.229,1.371,0,1.971
	c-0.229,0.601-0.828,1.115-1.143,1.285c-0.131,0.073-0.425,0.094-0.724,0.096v6.681c0.652-0.034,1.364-0.08,1.619-0.139
	c0.514-0.113,1.676-0.056,2.934-0.895c1.257-0.836,1.924-1.771,3.047-3.047c1.124-1.277,1.048-1.905,1.391-3.657
	c0.23-1.174,0.195-3.664,0.146-5.181H87.662L87.662,31.174z"/>
<path fill="#0071BB" d="M87.851,18.575c0,0-0.01,0.948-0.028,2.369h6.96v-2.759l-0.59-2.876l-1.942-3.2l-3.352-2.094l-3.2-0.427
	v6.971c0.406,0.088,0.962,0.232,1.295,0.416C87.565,17.29,87.851,18.575,87.851,18.575L87.851,18.575z"/>
<polygon fill="#0071BB" points="11.288,9.713 9.917,9.713 9.917,44.468 11.288,44.468 11.288,9.713 "/>
<polygon fill="#0071BB" points="14.649,9.713 13.278,9.713 13.278,44.468 14.649,44.468 14.649,9.713 "/>
<path fill="#EC1164" d="M159.3,19.643v2.129c0,2.562-1.28,4.027-3.753,4.027c-2.47,0-3.752-1.465-3.752-4.027v-8.328
	c0-2.563,1.282-4.026,3.752-4.026c2.473,0,3.753,1.464,3.753,4.026V15h-2.38v-1.716c0-1.145-0.504-1.579-1.305-1.579
	s-1.304,0.434-1.304,1.579v8.647c0,1.145,0.503,1.556,1.304,1.556s1.305-0.411,1.305-1.556v-2.288H159.3L159.3,19.643z"/>
<polygon fill="#EC1164" points="163.349,25.615 160.832,25.615 160.832,9.601 168.77,9.601 168.77,25.615 166.209,25.615 
	166.209,11.888 163.349,11.888 163.349,25.615 "/>
<path fill="#EC1164" d="M170.395,13.444c0-2.563,1.35-4.026,3.82-4.026c2.472,0,3.821,1.463,3.821,4.026v8.328
	c0,2.562-1.35,4.026-3.821,4.026c-2.471,0-3.82-1.464-3.82-4.026V13.444L170.395,13.444z M172.912,21.931
	c0,1.144,0.502,1.579,1.303,1.579s1.306-0.435,1.306-1.579v-8.647c0-1.144-0.505-1.578-1.306-1.578s-1.303,0.434-1.303,1.578V21.931
	L172.912,21.931z"/>
<path fill="#EC1164" d="M187.119,13.558v2.082c0,2.562-1.237,3.958-3.753,3.958h-1.189v6.017h-2.516V9.6h3.705
	C185.882,9.6,187.119,10.996,187.119,13.558L187.119,13.558z M182.177,11.888v5.423h1.189c0.801,0,1.235-0.366,1.235-1.51v-2.402
	c0-1.144-0.435-1.51-1.235-1.51H182.177L182.177,11.888z"/>
<polygon fill="#EC1164" points="187.554,9.601 195.332,9.601 195.332,11.888 192.701,11.888 192.701,25.616 190.185,25.616 
	190.185,11.888 187.554,11.888 187.554,9.601 "/>
<polygon fill="#EC1164" points="199.015,25.615 196.43,25.615 196.43,9.601 198.673,9.601 198.673,19.734 199.588,16.211 
	201.647,9.601 204.414,9.601 204.414,25.615 202.15,25.615 202.15,14.335 201.12,18.27 199.015,25.615 "/>
<path fill="#EC1164" d="M213.726,13.284v0.571c0,1.649-0.502,2.701-1.623,3.227c1.349,0.526,1.875,1.739,1.875,3.432v1.305
	c0,2.471-1.304,3.798-3.82,3.798h-3.958V9.601h3.796C212.605,9.601,213.726,10.813,213.726,13.284L213.726,13.284z M208.715,11.888
	v4.232h0.983c0.938,0,1.513-0.413,1.513-1.692v-0.893c0-1.144-0.391-1.647-1.283-1.647H208.715L208.715,11.888z M208.715,18.409
	v4.917h1.442c0.847,0,1.303-0.387,1.303-1.578v-1.395c0-1.488-0.479-1.944-1.622-1.944H208.715L208.715,18.409z"/>
<polygon fill="#EC1164" points="218.004,25.615 215.486,25.615 215.486,9.601 218.004,9.601 218.004,16.464 220.864,16.464 
	220.864,9.601 223.426,9.601 223.426,25.615 220.864,25.615 220.864,18.751 218.004,18.751 218.004,25.615 "/>
<path fill="#EC1164" d="M233.401,25.615h-2.541l-0.435-2.905h-3.087l-0.436,2.905h-2.312l2.564-16.014h3.683L233.401,25.615
	L233.401,25.615z M227.659,20.535h2.425l-1.212-8.098L227.659,20.535L227.659,20.535z"/>
<path fill="#EC1164" d="M234.111,25.615c0.251-0.594,0.274-1.166,0.274-1.946v-2.47c0-1.67,0.412-2.882,1.669-3.408
	c-1.121-0.527-1.646-1.603-1.646-3.25v-1.258c0-2.471,1.121-3.683,3.729-3.683h3.797v16.014h-2.515v-6.521h-0.87
	c-1.145,0-1.647,0.549-1.647,2.036v2.517c0,1.304-0.091,1.556-0.229,1.968H234.111L234.111,25.615z M238.205,11.888
	c-0.892,0-1.279,0.502-1.279,1.648v1.577c0,1.283,0.569,1.694,1.508,1.694h0.985v-4.919H238.205L238.205,11.888z"/>
<path fill="#EC1164" d="M159.275,46.498v-2.15h-5.376v2.15h-2.448v-4.393h0.986c0.433-0.55,0.57-1.144,0.616-2.083l0.572-11.688
	h7.047v13.771h1.099v4.393H159.275L159.275,46.498z M155.524,39.977c-0.068,1.214-0.298,1.739-0.709,2.129h3.295V30.621h-2.127
	L155.524,39.977L155.524,39.977z"/>
<polygon fill="#EC1164" points="165.683,35.082 169.137,35.082 169.137,37.37 165.683,37.37 165.683,42.059 170.028,42.059 
	170.028,44.347 163.167,44.347 163.167,28.333 170.028,28.333 170.028,30.621 165.683,30.621 165.683,35.082 "/>
<path fill="#EC1164" d="M179.042,32.291v2.082c0,2.562-1.233,3.957-3.75,3.957H174.1v6.017h-2.514V28.333h3.706
	C177.809,28.333,179.042,29.729,179.042,32.291L179.042,32.291z M174.1,30.621v5.421h1.192c0.799,0,1.235-0.364,1.235-1.509v-2.401
	c0-1.146-0.437-1.511-1.235-1.511H174.1L174.1,30.621z"/>
<polygon fill="#EC1164" points="187.462,34.809 190.437,28.333 192.953,28.333 189.864,34.83 192.953,44.348 190.368,44.348 
	188.079,37.256 187.462,38.468 187.462,44.348 184.969,44.348 184.969,38.468 184.352,37.232 182.063,44.348 179.478,44.348 
	182.59,34.899 179.478,28.333 181.995,28.333 184.969,34.809 184.969,28.333 187.462,28.333 187.462,34.809 "/>
<path fill="#EC1164" d="M202.173,44.348h-2.539l-0.435-2.905h-3.089l-0.435,2.905h-2.31l2.561-16.015h3.684L202.173,44.348
	L202.173,44.348z M196.431,39.27h2.424l-1.211-8.1L196.431,39.27L196.431,39.27z"/>
<path fill="#EC1164" d="M210.867,32.016v0.572c0,1.648-0.505,2.699-1.624,3.226c1.348,0.527,1.875,1.74,1.875,3.433v1.305
	c0,2.471-1.303,3.797-3.821,3.797h-3.956V28.334h3.797C209.746,28.334,210.867,29.546,210.867,32.016L210.867,32.016z
	 M205.857,30.621v4.233h0.981c0.939,0,1.512-0.413,1.512-1.693v-0.893c0-1.145-0.391-1.647-1.28-1.647H205.857L205.857,30.621z
	 M205.857,37.143v4.916h1.439c0.848,0,1.304-0.389,1.304-1.577v-1.396c0-1.487-0.479-1.943-1.623-1.943H205.857L205.857,37.143z"/>
<path fill="#EC1164" d="M220.772,44.348h-2.539l-0.436-2.905h-3.087l-0.435,2.905h-2.312l2.562-16.015h3.685L220.772,44.348
	L220.772,44.348z M215.029,39.27h2.427l-1.213-8.1L215.029,39.27L215.029,39.27z"/>
<polygon fill="#EC1164" points="276.776,26.164 281.417,27.448 281.417,24.884 276.776,26.164 "/>
<polygon fill="#0071BB" points="226.739,33.094 227.485,28.145 229.01,28.145 229.01,35.116 227.974,35.116 227.974,30.116 
	227.218,35.116 226.182,35.116 225.365,30.187 225.365,35.116 224.408,35.116 224.408,28.145 225.933,28.145 226.739,33.094 "/>
<polygon fill="#0071BB" points="230.9,31.082 232.404,31.082 232.404,32.078 230.9,32.078 230.9,34.12 232.793,34.12 
	232.793,35.115 229.804,35.115 229.804,28.145 232.793,28.145 232.793,29.141 230.9,29.141 230.9,31.082 "/>
<polygon fill="#0071BB" points="236.626,30.963 237.92,28.145 239.017,28.145 237.671,30.972 239.017,35.115 237.89,35.115 
	236.895,32.028 236.626,32.556 236.626,35.115 235.539,35.115 235.539,32.556 235.271,32.018 234.276,35.115 233.15,35.115 
	234.505,31.003 233.15,28.145 234.246,28.145 235.539,30.963 235.539,28.145 236.626,28.145 236.626,30.963 "/>
<path fill="#0071BB" d="M242.648,35.801v-0.685h-2.339v0.685h-1.065V34.14h0.428c0.188-0.239,0.248-0.498,0.269-0.906l0.248-5.089
	h3.068v5.995h0.479v1.661H242.648L242.648,35.801z M241.017,33.214c-0.031,0.526-0.13,0.757-0.309,0.926h1.435v-4.998h-0.929
	L241.017,33.214L241.017,33.214z"/>
<path fill="#0071BB" d="M246.771,33.343c-0.259,1.254-0.687,1.884-2.211,1.782V34.15c0.558,0.039,0.877-0.062,0.965-0.568
	l0.012-0.061l-1.516-5.377h1.086l0.598,2.381l0.339,1.633l0.259-1.624l0.498-2.39h1.146L246.771,33.343L246.771,33.343z"/>
<polygon fill="#0071BB" points="249.498,35.115 248.401,35.115 248.401,28.145 249.498,28.145 249.498,31.133 250.743,31.133 
	250.743,28.145 251.858,28.145 251.858,35.115 250.743,35.115 250.743,32.129 249.498,32.129 249.498,35.115 "/>
<path fill="#0071BB" d="M256.199,35.115h-1.105l-0.188-1.264h-1.347l-0.188,1.264h-1.006l1.116-6.971h1.601L256.199,35.115
	L256.199,35.115z M253.701,32.905h1.054l-0.525-3.525L253.701,32.905L253.701,32.905z"/>
<path fill="#0071BB" d="M259.955,29.866v0.906c0,1.116-0.54,1.725-1.634,1.725h-0.519v2.618h-1.097v-6.971h1.615
	C259.415,28.145,259.955,28.752,259.955,29.866L259.955,29.866z M257.803,29.141v2.36h0.519c0.347,0,0.537-0.16,0.537-0.657v-1.046
	c0-0.499-0.19-0.657-0.537-0.657H257.803L257.803,29.141z"/>
<path fill="#0071BB" d="M260.37,29.818c0-1.116,0.588-1.753,1.663-1.753s1.662,0.637,1.662,1.753v3.624
	c0,1.116-0.587,1.753-1.662,1.753s-1.663-0.637-1.663-1.753V29.818L260.37,29.818z M261.468,33.512c0,0.499,0.218,0.688,0.565,0.688
	s0.567-0.188,0.567-0.688v-3.763c0-0.499-0.22-0.689-0.567-0.689s-0.565,0.19-0.565,0.689V33.512L261.468,33.512z"/>
<path fill="#0071BB" d="M267.57,35.801v-0.685h-2.34v0.685h-1.065V34.14h0.428c0.189-0.239,0.249-0.498,0.269-0.906l0.248-5.089
	h3.069v5.995h0.478v1.661H267.57L267.57,35.801z M265.938,33.214c-0.03,0.526-0.131,0.757-0.309,0.926h1.433v-4.998h-0.927
	L265.938,33.214L265.938,33.214z"/>
<polygon fill="#0071BB" points="270.357,35.115 269.262,35.115 269.262,28.145 270.357,28.145 270.357,31.133 271.603,31.133 
	271.603,28.145 272.718,28.145 272.718,35.115 271.603,35.115 271.603,32.129 270.357,32.129 270.357,35.115 "/>
<path fill="#0071BB" d="M273.513,35.115v-6.971h1.096v2.619h0.517c1.097,0,1.634,0.606,1.634,1.724v0.905
	c0,1.115-0.537,1.723-1.634,1.723H273.513L273.513,35.115z M275.125,34.12c0.351,0,0.538-0.16,0.538-0.657v-1.047
	c0-0.497-0.188-0.656-0.538-0.656h-0.517v2.36H275.125L275.125,34.12z M277.386,28.145h1.096v6.971h-1.096V28.145L277.386,28.145z
	 M277.386,35.115v-6.971V35.115L277.386,35.115z"/>
<polygon fill="#0071BB" points="280.402,35.115 279.276,35.115 279.276,28.145 280.253,28.145 280.253,32.556 280.651,31.023 
	281.549,28.145 282.754,28.145 282.754,35.115 281.767,35.115 281.767,30.205 281.318,31.919 280.402,35.115 "/>
<path fill="#0071BB" d="M227.596,41.783v0.927c0,1.114-0.558,1.751-1.633,1.751c-1.076,0-1.633-0.637-1.633-1.751v-3.627
	c0-1.115,0.557-1.754,1.633-1.754c1.075,0,1.633,0.639,1.633,1.754v0.678h-1.035v-0.747c0-0.497-0.219-0.687-0.568-0.687
	c-0.348,0-0.568,0.189-0.568,0.687v3.765c0,0.498,0.221,0.677,0.568,0.677c0.35,0,0.568-0.179,0.568-0.677v-0.995H227.596
	L227.596,41.783z"/>
<polygon fill="#0071BB" points="229.358,44.382 228.262,44.382 228.262,37.411 231.717,37.411 231.717,44.382 230.602,44.382 
	230.602,38.405 229.358,38.405 229.358,44.382 "/>
<path fill="#0071BB" d="M232.423,39.085c0-1.117,0.589-1.755,1.664-1.755c1.073,0,1.662,0.638,1.662,1.755v3.625
	c0,1.114-0.589,1.751-1.662,1.751c-1.075,0-1.664-0.637-1.664-1.751V39.085L232.423,39.085z M233.52,42.778
	c0,0.499,0.219,0.687,0.567,0.687c0.348,0,0.567-0.188,0.567-0.687v-3.765c0-0.497-0.22-0.687-0.567-0.687
	c-0.349,0-0.567,0.189-0.567,0.687V42.778L233.52,42.778z"/>
<path fill="#0071BB" d="M239.703,39.133v0.907c0,1.115-0.539,1.723-1.634,1.723h-0.519v2.619h-1.095v-6.971h1.613
	C239.164,37.411,239.703,38.019,239.703,39.133L239.703,39.133z M237.551,38.406v2.361h0.519c0.349,0,0.537-0.16,0.537-0.656v-1.047
	c0-0.497-0.188-0.658-0.537-0.658H237.551L237.551,38.406z"/>
<polygon fill="#0071BB" points="239.891,37.411 243.276,37.411 243.276,38.406 242.131,38.406 242.131,44.383 241.035,44.383 
	241.035,38.406 239.891,38.406 239.891,37.411 "/>
<polygon fill="#0071BB" points="244.878,44.382 243.754,44.382 243.754,37.411 244.73,37.411 244.73,41.823 245.129,40.289 
	246.024,37.411 247.229,37.411 247.229,44.382 246.243,44.382 246.243,39.473 245.795,41.186 244.878,44.382 "/>
<path fill="#0071BB" d="M251.28,39.014v0.251c0,0.716-0.219,1.173-0.706,1.401c0.588,0.231,0.816,0.759,0.816,1.494v0.567
	c0,1.078-0.566,1.654-1.664,1.654h-1.722v-6.971h1.652C250.794,37.411,251.28,37.938,251.28,39.014L251.28,39.014z M249.1,38.405
	v1.845h0.428c0.408,0,0.659-0.181,0.659-0.737v-0.389c0-0.498-0.171-0.719-0.56-0.719H249.1L249.1,38.405z M249.1,41.245v2.141
	h0.627c0.37,0,0.568-0.168,0.568-0.688v-0.605c0-0.648-0.207-0.848-0.707-0.848H249.1L249.1,41.245z"/>
<polygon fill="#0071BB" points="253.141,44.382 252.045,44.382 252.045,37.411 253.141,37.411 253.141,40.398 254.388,40.398 
	254.388,37.411 255.502,37.411 255.502,44.382 254.388,44.382 254.388,41.396 253.141,41.396 253.141,44.382 "/>
<path fill="#0071BB" d="M256.299,44.382v-6.971h1.095v2.618h0.519c1.095,0,1.632,0.606,1.632,1.724v0.905
	c0,1.115-0.537,1.724-1.632,1.724H256.299L256.299,44.382z M257.912,43.386c0.349,0,0.538-0.158,0.538-0.658v-1.045
	c0-0.497-0.189-0.656-0.538-0.656h-0.519v2.359H257.912L257.912,43.386z M260.172,37.411h1.098v6.971h-1.098V37.411L260.172,37.411z
	 M260.172,44.382v-6.971V44.382L260.172,44.382z"/>
<path fill="#0071BB" d="M263.815,36.393c-0.188,0-0.316-0.039-0.392-0.169h-0.717c0.105,0.507,0.459,0.815,1.108,0.815
	c0.658,0,1.034-0.309,1.134-0.815h-0.718C264.148,36.354,264.01,36.393,263.815,36.393L263.815,36.393z"/>
<polygon fill="#0071BB" points="263.437,40.289 263.039,41.823 263.039,37.411 262.063,37.411 262.063,44.382 263.188,44.382 
	264.104,41.186 264.553,39.473 264.553,44.382 265.538,44.382 265.538,37.411 264.334,37.411 263.437,40.289 "/>
<path fill="#0071BB" d="M269.828,43.597h-0.407c-1.096,0-1.634-0.609-1.634-1.724v-1.902c0-1.115,0.538-1.723,1.634-1.723h0.407
	v-0.837h1.076v0.837h0.409c1.097,0,1.633,0.607,1.633,1.723v1.902c0,1.114-0.536,1.724-1.633,1.724h-0.409v0.786h-1.076V43.597
	L269.828,43.597z M269.828,39.214h-0.407c-0.349,0-0.548,0.189-0.548,0.688v2.04c0,0.498,0.199,0.697,0.548,0.697h0.407V39.214
	L269.828,39.214z M270.904,39.214v3.425h0.409c0.349,0,0.547-0.199,0.547-0.697v-2.04c0-0.498-0.198-0.688-0.547-0.688H270.904
	L270.904,39.214z"/>
<path fill="#0071BB" d="M273.592,39.085c0-1.117,0.588-1.755,1.663-1.755c1.076,0,1.663,0.638,1.663,1.755v3.625
	c0,1.114-0.587,1.751-1.663,1.751c-1.075,0-1.663-0.637-1.663-1.751V39.085L273.592,39.085z M274.688,42.778
	c0,0.499,0.219,0.687,0.567,0.687s0.568-0.188,0.568-0.687v-3.765c0-0.497-0.22-0.687-0.568-0.687s-0.567,0.189-0.567,0.687V42.778
	L274.688,42.778z"/>
<path fill="#0071BB" d="M280.87,39.133v0.907c0,1.115-0.537,1.723-1.633,1.723h-0.519v2.619h-1.094v-6.971h1.612
	C280.333,37.411,280.87,38.019,280.87,39.133L280.87,39.133z M278.719,38.406v2.361h0.519c0.348,0,0.538-0.16,0.538-0.656v-1.047
	c0-0.497-0.19-0.658-0.538-0.658H278.719L278.719,38.406z"/>
<path fill="#0071BB" d="M283.809,42.61c-0.261,1.253-0.688,1.881-2.212,1.781v-0.976c0.56,0.039,0.877-0.061,0.967-0.568l0.01-0.06
	l-1.513-5.377h1.085l0.598,2.38l0.339,1.634l0.257-1.623l0.5-2.391h1.145L283.809,42.61L283.809,42.61z"/>
<polygon fill="#0071BB" points="287.76,42.36 288.508,37.411 290.03,37.411 290.03,44.383 288.995,44.383 288.995,39.382 
	288.24,44.383 287.204,44.383 286.387,39.453 286.387,44.383 285.43,44.383 285.43,37.411 286.952,37.411 287.76,42.36 "/>
</svg>
